<?xml version="1.0" encoding="utf-8"?><svg viewBox="0 0 151 61" xmlns="http://www.w3.org/2000/svg" xmlns:xlink="http://www.w3.org/1999/xlink"><style>:root>svg{display:none}:root>svg:target{display:block}</style><svg fill="none" viewBox="0 0 151 61" id="ibm" xmlns="http://www.w3.org/2000/svg"><path d="M.574.303v4.101h29.169v-4.1H.574zm33.302 0v4.101h41.566s-4.245-4.1-9.869-4.1H33.876zm49.72 0v4.101h25.148l-1.493-4.1H83.597zm43.177 0l-1.492 4.101H150.2v-4.1h-23.427zM.574 8.28v4.1h29.169v-4.1H.574zm33.302.006v4.095h46.39s-.542-3.156-1.487-4.095H33.876zm49.72 0v4.095h27.905l-1.381-4.095H83.597zm40.192 0l-1.382 4.095H150.2V8.285h-26.412zM8.957 16.255v4.106h12.632v-4.107H8.957zm33.301 0v4.106H54.89v-4.107H42.258zm24.92 0v4.106h12.631s.802-2.169.802-4.107H67.177zm24.801 0v4.106h22.396l-1.492-4.107H91.979zm29.058 0l-1.499 4.106h22.507v-4.107h-21.008zm-112.08 7.98v4.101h12.632v-4.1H8.957zm33.301 0v4.101h32.265s2.7-2.104 3.56-4.1H42.257zm49.721 0v4.101h12.632v-2.282l.802 2.282h23.14l.86-2.282v2.282h12.632v-4.1h-23.713l-1.258 3.474-1.265-3.474h-23.83zM8.957 32.212v4.101h12.632v-4.101H8.957zm33.301 0v4.101h35.824c-.86-1.99-3.558-4.101-3.558-4.101H42.258zm49.721 0v4.101h12.632v-4.101H91.979zm14.927 0l1.528 4.101h17.35l1.452-4.101h-20.33zm22.507 0v4.101h12.632v-4.101h-12.632zM8.957 40.187v4.1h12.632v-4.1H8.957zm33.301 0v4.1H54.89v-4.1H42.258zm24.92 0v4.1H80.61c0-1.935-.802-4.1-.802-4.1H67.177zm24.801 0v4.1h12.632v-4.1H91.979zm17.795 0l1.481 4.1h11.631l1.493-4.1h-14.605zm19.639 0v4.1h12.632v-4.1h-12.632zM.803 48.162v4.107H29.97v-4.107H.803zm33.073 0v4.107h44.903c.945-.94 1.487-4.107 1.487-4.107h-46.39zm49.949 0v4.107h20.786v-4.107H83.825zm28.823 0l1.522 4.107h5.918l1.429-4.107h-8.869zm16.765 0v4.107h21.015v-4.107h-21.015zM.803 56.144v4.1H29.97v-4.1H.803zm33.073 0v4.095h31.697c5.624 0 9.87-4.096 9.87-4.096H33.875zm49.949 0v4.1h20.786v-4.1H83.825zm31.709 0l1.464 4.089.251.006 1.487-4.096h-3.202zm13.879 0v4.1h21.015v-4.1h-21.015z" fill="#1F70C1"/></svg><svg fill="none" viewBox="0 0 26 33" id="location" xmlns="http://www.w3.org/2000/svg"><g clip-path="url(#bclip0)" fill="#2091F9"><path d="M13.001 19.884a6.34 6.34 0 006.334-6.333A6.34 6.34 0 0013 7.217a6.34 6.34 0 00-6.333 6.334 6.34 6.34 0 006.333 6.333zm0-9.5a3.17 3.17 0 013.167 3.167 3.17 3.17 0 01-3.167 3.166 3.17 3.17 0 01-3.166-3.166A3.17 3.17 0 0113 10.384z"/><path d="M11.748 32.256a1.58 1.58 0 001.837 0c.481-.34 11.794-8.509 11.748-18.706 0-6.984-5.682-12.666-12.666-12.666S0 6.566 0 13.543c-.046 10.204 11.267 18.373 11.748 18.713zm.919-28.206c5.24 0 9.5 4.261 9.5 9.508.033 7.027-6.948 13.337-9.5 15.406-2.55-2.07-9.533-8.382-9.5-15.413 0-5.24 4.26-9.5 9.5-9.5z"/></g><defs><clipPath id="bclip0"><path fill="#fff" transform="translate(0 .717)" d="M0 0h26v32H0z"/></clipPath></defs></svg><svg viewBox="0 0 26 33" id="map" xmlns="http://www.w3.org/2000/svg"><g clip-path="url(#cclip0)"><path d="M13.001 19.884a6.34 6.34 0 006.334-6.333A6.34 6.34 0 0013 7.217a6.34 6.34 0 00-6.333 6.334 6.34 6.34 0 006.333 6.333zm0-9.5a3.17 3.17 0 013.167 3.167 3.17 3.17 0 01-3.167 3.166 3.17 3.17 0 01-3.166-3.166A3.17 3.17 0 0113 10.384z"/><path d="M11.748 32.256a1.58 1.58 0 001.837 0c.481-.34 11.794-8.509 11.748-18.706 0-6.984-5.682-12.666-12.666-12.666S0 6.566 0 13.543c-.046 10.204 11.267 18.373 11.748 18.713zm.919-28.206c5.24 0 9.5 4.261 9.5 9.508.033 7.027-6.948 13.337-9.5 15.406-2.55-2.07-9.533-8.382-9.5-15.413 0-5.24 4.26-9.5 9.5-9.5z"/></g><defs><clipPath id="cclip0"><path fill="#fff" transform="translate(0 .717)" d="M0 0h26v32H0z"/></clipPath></defs></svg><svg viewBox="0 0 22 35" id="phone" xmlns="http://www.w3.org/2000/svg"><g clip-path="url(#dclip0)"><path d="M16.542 1.176H4.875A4.37 4.37 0 00.5 5.55v23.333a4.37 4.37 0 004.375 4.375h11.667a4.37 4.37 0 004.375-4.375V5.551a4.37 4.37 0 00-4.375-4.375zm-2.917 29.166H7.792v-1.458h5.833v1.458zm4.74-4.375H3.052V5.551h15.313v20.416z"/></g><defs><clipPath id="dclip0"><path fill="#fff" transform="translate(.5 .217)" d="M0 0h21v34H0z"/></clipPath></defs></svg><svg viewBox="0 0 28 23" id="send" xmlns="http://www.w3.org/2000/svg"><g clip-path="url(#eclip0)"><path d="M25.813.905H1.438a.936.936 0 00-.938.937v18.75c0 .519.419.938.938.938h24.375a.936.936 0 00.937-.938V1.842a.936.936 0 00-.938-.937zM24.64 4.15v15.27H2.609V4.15l-.808-.63 1.151-1.48 1.254.976h18.84l1.255-.975 1.151 1.479-.811.63zm-1.594-1.137l-9.422 7.324-9.422-7.324L2.95 2.04l-1.151 1.48.808.629 10.008 7.781a1.64 1.64 0 002.013 0l10.014-7.778.808-.63-1.151-1.48-1.251.973z"/></g><defs><clipPath id="eclip0"><path fill="#fff" transform="translate(.5 .217)" d="M0 0h27v22H0z"/></clipPath></defs></svg></svg>